<?xml version="1.0" encoding="iso-8859-1"?>
<!-- Generator: Adobe Illustrator 18.1.1, SVG Export Plug-In . SVG Version: 6.00 Build 0)  -->
<svg version="1.1" id="Calque_1" xmlns="http://www.w3.org/2000/svg" xmlns:xlink="http://www.w3.org/1999/xlink" x="0px" y="0px"
	 viewBox="0 0 23 23" style="enable-background:new 0 0 23 23;" xml:space="preserve">
<path style="fill:#FFFFFF;" d="M10.5,17.185c0-0.193-0.051-0.207-0.055-0.886c-0.016,0.003-0.028,0.002-0.044,0.005
	c0.004,0.673,0.011,0.688,0.011,0.88v0.057c0.121,0.031,0.246,0.05,0.37,0.075c-0.09-0.027-0.177-0.057-0.281-0.075V17.185z"/>
<path style="fill:#FFFFFF;" d="M1,3v16v3l0,0h21l0,0v-3V3V1H1V3z M13.965,15.406c0,1.086,0.035,1.463,0.035,1.729v0.057
	c0,0.026-0.313,0.173-0.44,0.196c-0.306,0.055-0.549,0.247-0.763,0.279C12.538,17.706,12.292,18,11.971,18c-0.02,0-0.036,0-0.055,0
	c-0.014,0-0.027,0-0.04,0c-0.079,0-0.153-0.506-0.224-0.537c-0.019-0.001-0.038-0.016-0.057-0.017
	c-0.111,0.028-0.215,0.234-0.32,0.221c-0.283-0.036-0.524-0.261-0.964-0.396C10.188,17.246,10,17.224,10,17.193v-0.057
	c0-0.192-0.065-0.206-0.069-0.877c-0.274,0.056-0.553,0.084-0.777,0.086c-0.008,0-0.028-0.001-0.036-0.001
	c-1.143-0.222-1.455-1.137-1.455-1.137s0.277,0.911,1.404,1.134c-1.562,0-1.928-1.177-1.928-1.177
	c-0.369-0.938-0.903-1.188-0.903-1.188c-0.737-0.504,0.055-0.494,0.055-0.494c0.815,0.058,1.244,0.837,1.244,0.837
	c0.724,1.241,1.901,0.883,2.364,0.676c0.074-0.526,0.284-0.885,0.515-1.087c-1.803-0.205-3.699-0.9-3.699-4.014
	c0-0.222,0.02-0.433,0.058-0.635C6.801,9.109,6.84,8.963,6.888,8.824c0.144-0.42,0.372-0.79,0.664-1.109
	C7.468,7.51,7.189,6.684,7.631,5.566c0,0,0.043-0.014,0.131-0.018c0.085-0.004,0.216,0.004,0.387,0.039
	C7.71,6.705,7.988,7.53,8.071,7.735c-0.147,0.16-0.277,0.333-0.389,0.518c0.112-0.185,0.242-0.358,0.389-0.518
	C7.988,7.53,7.71,6.705,8.149,5.587c0.364,0.073,0.924,0.276,1.716,0.812c0.648-0.181,1.343-0.271,2.034-0.276h0h0
	c0.127,0,0.253,0.02,0.38,0.026c-0.642,0.016-1.285,0.098-1.887,0.266h0c0.602-0.168,1.245-0.25,1.887-0.266
	c0.562,0.029,1.123,0.101,1.653,0.248c1.164-0.789,1.837-0.863,2.101-0.851c0.089,0.004,0.132,0.018,0.132,0.018
	c0.005,0.013,0.008,0.024,0.012,0.038c-0.365,0.075-0.922,0.28-1.706,0.812c0,0,0,0,0,0c0.784-0.531,1.341-0.736,1.706-0.812
	c0.422,1.099,0.152,1.909,0.07,2.111c0.52,0.568,0.838,1.293,0.838,2.18c0,3.121-1.883,3.808-3.692,4.007
	C13.683,14.152,13.965,14.648,13.965,15.406z"/>
</svg>
