<?xml version="1.0" encoding="iso-8859-1"?>
<!-- Generator: Adobe Illustrator 18.1.1, SVG Export Plug-In . SVG Version: 6.00 Build 0)  -->
<svg version="1.1" id="Calque_1" xmlns="http://www.w3.org/2000/svg" xmlns:xlink="http://www.w3.org/1999/xlink" x="0px" y="0px"
	 viewBox="0 0 23 23" style="enable-background:new 0 0 23 23;" xml:space="preserve">
<path style="fill:#FFFFFF;" d="M9.654,8C8.729,8,8.128,7.438,8.1,6.653C8.099,6.671,8.095,6.602,8.095,6.62
	C8.095,7.435,8.707,8,9.654,8z"/>
<path style="fill:#FFFFFF;" d="M15.5,10.537c0-0.023,0.013-0.048,0.016-0.071c-0.005,0.008-0.011,0.016-0.016,0.024V10.537z"/>
<path style="fill:#FFFFFF;" d="M16.62,9.44c0.408-0.175,0.905-0.291,1.451-0.302c-0.021,0-0.039-0.005-0.06-0.005
	C17.434,9.134,16.982,9.257,16.62,9.44z"/>
<path style="fill:#FFFFFF;" d="M12.646,9c0.011,1,0.016,1.163,0.016,2.306c0-0.982-0.003-1.306-0.009-2.306H12.646z"/>
<path style="fill:#FFFFFF;" d="M1,3v17v2l0,0h21l0,0v-2V3V1H1V3z M15,18v-4.756c0-1.128-0.278-1.898-1.276-1.912
	c-0.768,0.007-1.348,0.524-1.55,1.027C12.1,12.54,12,12.792,12,13.046V18H9.474H9c0,0,0-0.124,0-0.228
	c0-0.508,0.247-2.148,0.25-3.898c0.002-0.769,0.158-1.706,0.158-2.421C9.408,10.314,9.486,10,9.474,9h0.007C9.479,9,9.477,9,9.474,9
	H12v1.461c0-0.008,0.171-0.016,0.177-0.024c0.051-0.342,0.543-0.749,1.18-1.022c0.361-0.183,0.851-0.306,1.427-0.306
	c0.021,0,0.059,0.005,0.08,0.005c0.026,0-0.091-0.005-0.065-0.005c1.851,0,3.201,1.21,3.201,3.81V18H15L15,18L15,18z M5,18V9l0,0
	l0,0h3v9H5L5,18L5,18z M4.938,6.614c0-0.019,0.005,0.002,0.005-0.016C4.942,6.579,4.938,6.581,4.938,6.563
	c0-0.831,0.629-1.389,1.592-1.389c0.825,0,1.354,0.451,1.506,1.099c0.021,0.073,0.036,0.151,0.047,0.228
	c0.003,0.036,0.02,0.065,0.021,0.101c0,0.016-0.004,0.031-0.004,0.047C8.098,6.663,8.102,6.676,8.102,6.69
	c0,0.375-0.136,0.713-0.373,0.971C7.46,7.867,7.11,8,6.673,8c0.365,0,0.679-0.155,0.929-0.294C7.331,7.934,6.962,8,6.511,8H6.492
	C5.548,8,4.938,7.426,4.938,6.614z"/>
</svg>
