<?xml version="1.0" encoding="iso-8859-1"?>
<!-- Generator: Adobe Illustrator 18.1.1, SVG Export Plug-In . SVG Version: 6.00 Build 0)  -->
<svg version="1.1" id="Calque_1" xmlns="http://www.w3.org/2000/svg" xmlns:xlink="http://www.w3.org/1999/xlink" x="0px" y="0px"
	 viewBox="0 0 23 23" style="enable-background:new 0 0 23 23;" xml:space="preserve">
<path style="fill:#FFFFFF;" d="M10.5,17.185c0-0.193-0.051-0.207-0.055-0.886c-0.016,0.003-0.028,0.002-0.044,0.005
	c0.004,0.673,0.011,0.688,0.011,0.88v0.057c0.121,0.031,0.246,0.05,0.37,0.075c-0.09-0.027-0.177-0.057-0.281-0.075V17.185z"/>
<path style="fill:#FFFFFF;" d="M1,1v2v17v2l0,0h21l0,0v-2V3V1H1z M19,13.001C19,14.071,18.55,15,17.479,15c-0.001,0-0.025,0-0.043,0
	c-0.428,0-5.28-0.002-5.285-0.002C12.139,14.997,12.139,15,12.129,15c-0.041,0-0.063,0-0.063,0c-0.065,0-0.117-0.085-0.155-0.135
	c-0.089,0.049-0.204,0.062-0.271,0.062c-0.03,0-0.072-0.019-0.116-0.031l-0.27-1.611l-0.08-0.733l0.076-3.805
	c0.002-0.117,0.097-0.214,0.213-0.214c0.117,0,0.372,0.095,0.374,0.212L12,10.942V8.539c0-0.113-0.03-0.17,0.115-0.227
	c0.377-0.146,0.767-0.232,1.204-0.232c1.786,0,3.232,1.37,3.386,3.116c0.113-0.046,0.278-0.083,0.399-0.108
	C18.122,11.149,19,11.999,19,13.028c0-0.003,0-0.006,0-0.006c0-1.037-0.884-1.874-1.904-1.935c0.129-0.027,0.035-0.042,0.171-0.042
	c1.07,0,1.732,0.868,1.732,1.938c0,0.003,0,0.006,0,0.006C19,12.995,19,12.998,19,13.001z M10.883,14.882
	c-0.087-0.038-0.164-0.086-0.164-0.146c0.001,0.076,0.049,0.132,0.11,0.169c-0.01,0.001-0.016,0.011-0.026,0.011
	c-0.109,0-0.198-0.089-0.2-0.2l-0.075-1.608l0.075-3.999c0.002-0.11,0.091-0.2,0.2-0.2s0.199,0.09,0.2,0.2l0.049,2.33L11,10.972
	v3.75C10.996,14.798,10.947,14.851,10.883,14.882z M10.138,14.913c-0.103,0-0.185-0.082-0.187-0.185L9.868,13.11l0.083-3.363
	c0.002-0.104,0.084-0.186,0.187-0.186c0.102,0,0.184,0.082,0.186,0.186l0.094,3.363l-0.094,1.618v-0.001
	C10.322,14.833,10.24,14.913,10.138,14.913z M9.479,14.91c-0.095,0-0.171-0.075-0.173-0.172L9.214,13.11l0.091-3.49
	c0.002-0.097,0.078-0.172,0.173-0.172c0.094,0,0.17,0.075,0.173,0.172l0.103,3.49l-0.103,1.627v0
	C9.649,14.834,9.573,14.91,9.479,14.91z M9.104,13.11L9,14.753v0.001c0,0.088-0.081,0.159-0.168,0.159c-0.005,0,0-0.005-0.005-0.005
	c-0.005,0-0.003,0.005-0.008,0.005c-0.087,0-0.154-0.07-0.157-0.159L8.564,13.11l0.1-3.582C8.666,9.44,8.737,9.37,8.824,9.37
	c0.087,0,0.161,0.07,0.164,0.159L9.104,13.11z M8.185,14.903c-0.034-0.027-0.059-0.064-0.06-0.107
	c0.001,0.043,0.019,0.081,0.047,0.109c-0.077-0.002-0.14-0.062-0.142-0.141l-0.107-1.655l0.107-3.465
	c0.003-0.082,0.067-0.145,0.146-0.145c0.079,0,0.144,0.063,0.146,0.145l0.121,3.464l-0.121,1.655
	C8.318,14.84,8.258,14.897,8.185,14.903z M7.794,13.108l-0.13,1.672c-0.003,0.073-0.062,0.131-0.133,0.131
	c-0.072,0-0.13-0.058-0.133-0.131l-0.115-1.672L7.398,9.91c0.003-0.074,0.061-0.131,0.133-0.131c0.071,0,0.129,0.057,0.133,0.131
	L7.794,13.108z M6.891,14.908c-0.064,0-0.116-0.052-0.119-0.117l-0.124-1.683l0.124-2.603c0.003-0.065,0.056-0.118,0.119-0.118
	c0.063,0,0.116,0.053,0.119,0.118l0.139,2.603l-0.139,1.683V14.79C7.007,14.855,6.954,14.908,6.891,14.908z M6.512,13.108
	L6.364,14.79c-0.005,0.059-0.049,0.104-0.106,0.104c-0.057,0-0.102-0.045-0.106-0.104l-0.131-1.682l0.131-1.6
	c0.004-0.06,0.049-0.104,0.106-0.104c0.057,0,0.102,0.045,0.106,0.104L6.512,13.108z M5.879,13.107l-0.158,1.668
	c-0.005,0.052-0.044,0.09-0.092,0.09c-0.049,0-0.089-0.039-0.093-0.09l-0.138-1.668l0.138-1.724
	c0.004-0.053,0.044-0.091,0.093-0.091c0.048,0,0.088,0.039,0.092,0.091L5.879,13.107z M5.25,13.107l-0.167,1.618
	c-0.004,0.045-0.037,0.077-0.078,0.077c-0.042,0-0.075-0.032-0.079-0.077l-0.147-1.617l0.147-1.676
	c0.004-0.045,0.037-0.078,0.079-0.078c0.041,0,0.074,0.033,0.079,0.078L5.25,13.107z M4.627,13.107l-0.176,1.384
	c-0.006,0.039-0.033,0.063-0.065,0.063c-0.034,0-0.061-0.026-0.066-0.063l-0.155-1.384l0.155-1.414
	c0.004-0.037,0.032-0.063,0.066-0.063c0.033,0,0.06,0.026,0.065,0.064L4.627,13.107z M4.003,13.107l-0.136,0.859
	c-0.005,0.036-0.031,0.061-0.063,0.061c-0.032,0-0.059-0.023-0.063-0.061l-0.115-0.859l0.115-0.875
	c0.004-0.036,0.03-0.062,0.063-0.062c0.032,0,0.058,0.025,0.063,0.062L4.003,13.107z"/>
</svg>
