<?xml version="1.0" encoding="iso-8859-1"?>
<!-- Generator: Adobe Illustrator 18.1.1, SVG Export Plug-In . SVG Version: 6.00 Build 0)  -->
<svg version="1.1" id="Calque_1" xmlns="http://www.w3.org/2000/svg" xmlns:xlink="http://www.w3.org/1999/xlink" x="0px" y="0px"
	 viewBox="0 0 23 23" style="enable-background:new 0 0 23 23;" xml:space="preserve">
<path style="fill:#FFFFFF;" d="M1,3.125v17V22l0,0h21l0,0v-1.875v-17V1H1V3.125z M18.062,7.564c-0.361,0.54-0.68,1.023-1.207,1.401
	C16.86,9.075,17,9.185,17,9.296v0.013c0,0.007,0,0.016,0,0.024c0,3.558-2.845,7.698-7.798,7.698c-1.349,0-2.674-0.373-3.775-0.973
	C5.436,16.06,5.378,16,5.388,16c0.001,0,0.003,0,0.004,0c1.266,0,2.437-0.517,3.361-1.241c-0.035-0.001-0.069,0.024-0.103,0.02
	c0.027-0.019-0.161-0.017-0.135-0.036C7.431,14.632,7,13.845,6,12.84v-0.003c0-0.025-0.021-0.048-0.029-0.073
	C5.98,12.766,6,12.765,6,12.765v-0.001c1,0.029,0.555,0.042,0.72,0.044c0.096-0.001,0.293-0.026,0.386-0.036
	c-0.177,0.043-0.276,0.07-0.48,0.071c0.011,0,0.084,0.003,0.096,0.003c0.246,0,0.59-0.033,0.816-0.093
	c-0.021-0.004-0.033-0.013-0.053-0.018c0.043-0.009-0.138-0.006-0.096-0.018C6.157,12.47,5,11.382,5,10.077c0-0.011,0-0.022,0-0.033
	c1,0.041,0.542,0.062,0.62,0.096c0-0.021,0.38-0.042,0.38-0.063c0-0.011,0-0.022,0-0.033c0,0.071-0.069,0.13,0.055,0.18
	c0.012,0.004-0.053,0.011-0.04,0.015c0.067,0.024,0.106,0.044,0.188,0.062c0.08,0.019,0.145,0.026,0.228,0.038
	c0.026,0.019,0.036,0.044,0.063,0.062c0.042,0.003,0.08,0.006,0.119,0.007c-0.021-0.014-0.041-0.034-0.061-0.049
	c0.016,0.001,0.03,0.006,0.047,0.007c0.027,0.002,0.052,0.004,0.079,0.006C5.959,9.889,5.487,9.069,5.487,8.139
	c0-0.247,0.033-0.486,0.095-0.713s0.153-0.442,0.269-0.641c1.328,1.629,3.312,2.701,5.55,2.814c-0.046-0.198-0.07-0.403-0.07-0.614
	c0-1.431,1.12-2.589,2.53-2.676c0.775,0.001,1.475,0.329,1.966,0.852c0.048-0.009,0.092-0.029,0.14-0.04
	c0.007,0.008,0.017,0.013,0.024,0.021c0.613-0.121,1.189-0.591,1.709-0.899C17.699,6.244,17.699,6,17.698,6c0,0,0.001,0,0.001,0
	c-0.197,1-0.614,1.382-1.153,1.716c-0.062,0.01-0.121,0.151-0.183,0.159c-0.003,0.001-0.005,0.066-0.009,0.067
	c0.062-0.007,0.121,0.005,0.183-0.004c-0.004,0.002-0.008,0.021-0.012,0.024c0.54-0.066,1.057-0.202,1.537-0.415
	c-0.003,0.004-0.007,0.012-0.01,0.017C18.056,7.562,18.059,7.565,18.062,7.564z M4.938,15.748c0.209,0.024,0.429,0.038,0.645,0.038
	c0.287,0,0.568-0.025,0.842-0.069c-0.336,0.067-0.68,0.113-1.037,0.113c-0.113,0-0.224-0.013-0.336-0.02
	C5.014,15.789,4.974,15.771,4.938,15.748z M13.863,6.31c0.055-0.003,0.107-0.017,0.162-0.017c0.763,0,1.45,0.319,1.94,0.828
	c-0.047,0.011-0.091,0.031-0.139,0.04C15.336,6.638,14.637,6.312,13.863,6.31z"/>
<path style="fill:#FFFFFF;" d="M9.654,8C8.729,8,8.128,7.438,8.1,6.653C8.099,6.671,8.095,6.602,8.095,6.62
	C8.095,7.435,8.707,8,9.654,8z"/>
<path style="fill:#FFFFFF;" d="M15.5,10.537c0-0.023,0.013-0.048,0.016-0.071c-0.005,0.008-0.011,0.016-0.016,0.024V10.537z"/>
<path style="fill:#FFFFFF;" d="M16.62,9.44c0.408-0.175,0.905-0.291,1.451-0.302c-0.021,0-0.039-0.005-0.06-0.005
	C17.434,9.134,16.982,9.257,16.62,9.44z"/>
<path style="fill:#FFFFFF;" d="M12.646,9c0.011,1,0.016,1.163,0.016,2.306c0-0.982-0.003-1.306-0.009-2.306H12.646z"/>
</svg>
