<?xml version="1.0" encoding="iso-8859-1"?>
<!-- Generator: Adobe Illustrator 18.1.1, SVG Export Plug-In . SVG Version: 6.00 Build 0)  -->
<svg version="1.1" id="Calque_1" xmlns="http://www.w3.org/2000/svg" xmlns:xlink="http://www.w3.org/1999/xlink" x="0px" y="0px"
	 viewBox="0 0 32 32" style="enable-background:new 0 0 32 32;" xml:space="preserve">
<path d="M0,3.048v25.905V32l0,0h32l0,0v-3.048V3.048V0H0V3.048z M26,9.812c-0.55,0.823-1.037,1.559-1.839,2.135
	c0.007,0.167,0.22,0.334,0.22,0.504v0.019c0,0.011,0,0.025,0,0.036c0,5.421-4.336,11.731-11.883,11.731
	c-2.056,0-4.075-0.473-5.752-1.388c0.015,0.003-0.075,0.007-0.06,0.007c0.002,0,0.004,0,0.007,0c1.929,0,3.714-0.882,5.122-1.987
	c-0.054-0.001-0.105-0.01-0.158-0.017c0.041-0.028-0.246-0.05-0.205-0.079c-1.652-0.169-2.309-1.392-3.833-2.923v-0.005
	c0-0.039-0.032-0.073-0.045-0.112c0.014,0.003,0.045,0.001,0.045,0.001v-0.001c1.524,0.044,0.845,0.064,1.097,0.067
	c0.146-0.001,0.446-0.04,0.588-0.055c-0.269,0.065-0.421,0.106-0.732,0.109c0.017,0,0.129,0.004,0.146,0.004
	c0.375,0,0.899-0.05,1.244-0.142c-0.031-0.007-0.05-0.019-0.081-0.027c0.066-0.014-0.21-0.009-0.146-0.027
	c-1.876-0.376-3.64-2.034-3.64-4.024c0-0.016,0-0.034,0-0.051c1.524,0.062,0.827,0.094,0.944,0.147
	c-0.001-0.033,0.579-0.063,0.579-0.096c0-0.016,0-0.034,0-0.051c0,0.108-0.105,0.199,0.084,0.274
	c0.019,0.007-0.08,0.016-0.062,0.023c0.102,0.036,0.162,0.067,0.287,0.094c0.122,0.029,0.222,0.039,0.347,0.058
	c0.039,0.029,0.055,0.068,0.096,0.095c0.064,0.004,0.122,0.009,0.181,0.011c-0.032-0.022-0.062-0.052-0.093-0.074
	c0.025,0.002,0.046,0.01,0.071,0.011c0.041,0.004,0.079,0.007,0.12,0.01c-1.093-0.738-1.812-1.987-1.812-3.404
	c0-0.376,0.05-0.74,0.145-1.086c0.095-0.346,0.233-0.673,0.41-0.977c2.024,2.483,5.047,4.115,8.457,4.288
	c-0.069-0.301-0.107-0.615-0.107-0.935c0-2.18,1.707-3.945,3.855-4.077c1.181,0.002,2.247,0.501,2.996,1.298
	c0.073-0.014,0.14-0.045,0.213-0.061c0.011,0.012,0.026,0.02,0.037,0.032c0.933-0.184,1.811-0.805,2.604-1.275
	c-0.001,0.001-0.001-0.275-0.002-0.275c0.001,0,0.001,0,0.002,0c-0.3,1.524-0.936,2.011-1.757,2.52
	c-0.094,0.015-0.184,0.183-0.279,0.195c-0.005,0.002-0.008,0.077-0.013,0.079c0.095-0.011,0.184-0.005,0.278-0.019
	c-0.006,0.004-0.012,0.026-0.018,0.031c0.823-0.101,1.61-0.311,2.342-0.636c-0.004,0.007-0.011,0.017-0.016,0.024
	C25.989,9.81,25.995,9.814,26,9.812z M6,22.283c0.319,0.037,0.654,0.058,0.983,0.058c0.438-0.001,0.865-0.039,1.283-0.106
	c-0.513,0.103-1.037,0.173-1.58,0.173c-0.172,0-0.341-0.019-0.512-0.03C6.117,22.344,6.055,22.318,6,22.283z M19.601,7.9
	c0.084-0.005,0.163-0.025,0.247-0.025c1.162,0,2.21,0.486,2.956,1.261c-0.072,0.016-0.138,0.047-0.211,0.061
	C21.846,8.4,20.781,7.903,19.601,7.9z"/>
</svg>
