<svg viewBox="0 0 141 132" xmlns="http://www.w3.org/2000/svg" xmlns:xlink="http://www.w3.org/1999/xlink"><svg viewBox="0 0 17 17" enable-background="new 0 0 17 17" width="17" height="17" id="close" x="69" y="109"><path fill="#fff" d="M15.707 2.707l-1.414-1.414L8.5 7.086 2.707 1.293 1.293 2.707 7.086 8.5l-5.793 5.793 1.414 1.414L8.5 9.914l5.793 5.793 1.414-1.414L9.914 8.5z"/></svg><svg viewBox="0 0 47 47" enable-background="new 0 0 47 47" width="47" height="47" id="download_resume" y="62"><path d="M23.5 1C11.074 1 1 11.073 1 23.5S11.074 46 23.5 46 46 35.927 46 23.5 35.926 1 23.5 1zm1.013 33.974l-.964.964-.05-.048-.05.05-.963-.965.05-.05-9.595-9.593.555-.964L22 33.278V12h2v21.28l9.003-8.913 1.01.964-9.57 9.595.07.05z" fill="#fff"/></svg><svg viewBox="0 0 32 32" enable-background="new 0 0 32 32" width="32" height="32" id="facebook_share" x="109" y="32"><path d="M0 0v32h32V0H0zm20.724 16h-3.032v11h-4.547V16h-2.272v-3.792h2.272V9.932C13.145 6.84 14.427 5 18.075 5h3.032v3.792H19.21c-1.418 0-1.51.53-1.51 1.52l-.008 1.898h3.436L20.724 16z"/></svg><svg viewBox="0 0 22 18" enable-background="new 0 0 22 18" width="22" height="18" id="gallery" x="109" y="87"><path d="M18 4V1H1v13h3v-1H2V2h15v2H4v13h17V4h-3zm2 12H5V5h15v11z" fill="#fff"/></svg><svg viewBox="0 0 23 23" enable-background="new 0 0 23 23" width="23" height="23" id="github" y="109"><path d="M10.5 17.185c0-.193-.05-.207-.055-.886-.016.002-.028 0-.044.004.005.673.012.688.012.88v.057c.12.032.246.05.37.076-.09-.027-.177-.057-.28-.075v-.055zM1 3v19h21V1H1v2zm12.965 12.406c0 1.086.035 1.463.035 1.73v.056c0 .026-.313.173-.44.196-.306.055-.55.247-.763.28-.26.038-.505.332-.826.332h-.094c-.08 0-.153-.506-.224-.537-.02 0-.038-.016-.057-.017-.11.028-.215.234-.32.22-.283-.035-.524-.26-.964-.395-.122-.024-.31-.046-.31-.077v-.057c0-.192-.065-.206-.07-.877-.273.055-.552.083-.776.085h-.036c-1.143-.223-1.455-1.138-1.455-1.138s.277.91 1.404 1.134c-1.562 0-1.928-1.176-1.928-1.176-.37-.938-.904-1.188-.904-1.188-.737-.504.055-.494.055-.494.816.058 1.245.837 1.245.837.724 1.24 1.9.882 2.364.675.073-.526.283-.885.514-1.087-1.803-.205-3.7-.9-3.7-4.014 0-.222.02-.433.06-.635.027-.15.066-.297.114-.436.144-.42.372-.79.664-1.11-.084-.204-.363-1.03.08-2.148 0 0 .042-.014.13-.018.085-.004.216.004.387.04-.44 1.117-.162 1.942-.08 2.147-.146.16-.276.333-.388.518.112-.185.242-.358.39-.518-.084-.205-.362-1.03.077-2.148.363.073.923.276 1.715.812.648-.182 1.343-.272 2.034-.277.126 0 .252.02.38.026-.643.015-1.286.097-1.888.265.602-.168 1.245-.25 1.887-.266.56.028 1.122.1 1.652.247 1.164-.79 1.837-.863 2.1-.85.09.003.133.017.133.017l.012.038c-.365.075-.922.28-1.706.812.785-.53 1.342-.736 1.707-.812.422 1.1.152 1.91.07 2.11.52.57.838 1.294.838 2.18 0 3.122-1.883 3.81-3.692 4.008.29.252.572.748.572 1.506z" fill="#fff"/></svg><svg viewBox="0 0 12 12" enable-background="new 0 0 12 12" width="12" height="12" id="link" x="62" y="47"><path fill="#1D1D1B" d="M11 5.125h-.75V2H7.125v-.75H11zM10 11H1.25V2.25h4.375V3H2v7.25h7.25V6.625H10zM10.36 1.36l.53.53-5.5 5.5-.53-.53z"/></svg><svg viewBox="0 0 23 23" enable-background="new 0 0 23 23" width="23" height="23" id="linkedin" x="23" y="109"><path d="M9.654 8C8.73 8 8.128 7.438 8.1 6.653c0 .018-.005-.05-.005-.033 0 .815.612 1.38 1.56 1.38zM15.5 10.537c0-.023.013-.048.016-.07l-.016.023v.047zM16.62 9.44c.408-.175.905-.29 1.45-.302-.02 0-.038-.005-.06-.005-.576 0-1.028.124-1.39.307zM12.646 9c.01 1 .016 1.163.016 2.306 0-.982-.003-1.306-.01-2.306h-.006zM1 3v19h21V1H1v2zm14 15v-4.756c0-1.128-.278-1.898-1.276-1.912-.768.007-1.348.524-1.55 1.027-.074.18-.174.432-.174.686V18H9v-.228c0-.508.247-2.148.25-3.898.002-.77.158-1.706.158-2.42 0-1.14.078-1.454.066-2.454h.007-.006H12v1.46c0-.007.17-.015.177-.023.05-.342.543-.75 1.18-1.022.36-.183.85-.306 1.427-.306l.08.004c.026 0-.09-.005-.065-.005 1.85 0 3.2 1.21 3.2 3.81V18h-3zM5 18V9h3v9H5zM4.938 6.614c0-.02.005.002.005-.016 0-.02-.005-.017-.005-.035 0-.83.63-1.39 1.592-1.39.825 0 1.354.452 1.506 1.1.02.073.036.15.047.228.003.037.02.066.02.102 0 .016-.003.03-.003.047-.002.013.002.026.002.04 0 .375-.136.713-.373.97-.27.207-.62.34-1.057.34.365 0 .68-.155.93-.294C7.33 7.934 6.962 8 6.51 8h-.018c-.944 0-1.554-.574-1.554-1.386z" fill="#fff"/></svg><svg viewBox="0 0 47 47" enable-background="new 0 0 47 47" width="47" height="47" id="play_sound" x="47" y="62"><path d="M23.5 1C11.074 1 1 11.073 1 23.5 1 35.926 11.074 46 23.5 46S46 35.926 46 23.5C46 11.073 35.926 1 23.5 1zM19 33V15l13 9-13 9z" fill="#FFB706"/></svg><svg viewBox="0 0 62 62" enable-background="new 0 0 62 62" width="62" height="62" id="play_video"><circle cx="31" cy="31" r="30" fill="#fff"/><path d="M31 8.5C18.574 8.5 8.5 18.573 8.5 31c0 12.426 10.074 22.5 22.5 22.5S53.5 43.426 53.5 31C53.5 18.573 43.426 8.5 31 8.5zm-5 32v-18l13 9-13 9z" fill="#414753"/><path d="M4.557 43.864c.005.108.007.232.008.344V44.2c0-.116-.003-.226-.008-.336z" fill="#fff"/></svg><svg viewBox="0 0 23 23" enable-background="new 0 0 23 23" width="23" height="23" id="soundcloud" x="46" y="109"><path d="M10.5 17.185c0-.193-.05-.207-.055-.886-.016.002-.028 0-.044.004.005.673.012.688.012.88v.057c.12.032.246.05.37.076-.09-.027-.177-.057-.28-.075v-.055zM1 1v21h21V1H1zm18 12c0 1.07-.45 2-1.52 2h-.044l-5.285-.002-.02.002h-.064c-.065 0-.117-.085-.155-.135-.088.05-.203.062-.27.062-.03 0-.072-.02-.116-.03l-.27-1.612-.08-.733.076-3.805c.002-.117.097-.214.213-.214.117 0 .372.095.374.212L12 10.942V8.54c0-.114-.03-.17.115-.228.377-.146.767-.232 1.204-.232 1.785 0 3.23 1.37 3.385 3.116.113-.046.278-.083.4-.108 1.017.06 1.895.91 1.895 1.94v-.006c0-1.037-.884-1.874-1.904-1.935.13-.027.035-.042.17-.042 1.07 0 1.733.868 1.733 1.938V13zm-8.117 1.882c-.087-.038-.164-.086-.164-.146 0 .076.048.132.11.17-.01 0-.017.01-.027.01-.11 0-.198-.09-.2-.2l-.075-1.608.075-4c.002-.11.09-.2.2-.2s.2.09.2.2l.05 2.33-.053-.466v3.75c-.004.076-.053.13-.117.16zm-.745.03c-.103 0-.185-.08-.187-.184L9.87 13.11l.083-3.363c.003-.104.085-.186.188-.186.102 0 .184.083.186.187l.094 3.363-.094 1.618c-.002.105-.084.185-.186.185zm-.66-.002c-.094 0-.17-.075-.172-.172l-.092-1.628.09-3.49c.003-.097.08-.172.174-.172.094 0 .17.075.173.172l.104 3.49-.103 1.627c0 .097-.077.173-.17.173zm-.374-1.8L9 14.753c0 .09-.08.16-.168.16-.005 0 0-.005-.005-.005s-.003.005-.008.005c-.088 0-.155-.07-.158-.16l-.098-1.643.1-3.582c.002-.088.073-.158.16-.158.087 0 .16.07.164.16l.116 3.58zm-.92 1.793c-.033-.027-.058-.064-.06-.107.002.043.02.08.048.11-.077-.003-.14-.063-.142-.142l-.107-1.655.107-3.466c.003-.082.067-.145.146-.145.08 0 .144.062.146.144l.12 3.464-.12 1.655c-.004.077-.064.134-.137.14zm-.39-1.795l-.13 1.672c-.003.073-.062.13-.133.13-.07 0-.13-.057-.132-.13l-.115-1.672.115-3.198c.003-.074.06-.13.133-.13.072 0 .13.056.134.13l.13 3.198zm-.903 1.8c-.063 0-.115-.052-.118-.117l-.124-1.682.124-2.603c.003-.065.056-.118.12-.118.062 0 .115.053.118.118l.14 2.603-.14 1.683c-.003.065-.056.118-.12.118zm-.378-1.8l-.148 1.682c-.005.06-.05.104-.106.104-.057 0-.102-.045-.106-.104l-.13-1.682.13-1.6c.004-.06.05-.104.106-.104.057 0 .102.045.106.104l.148 1.6zm-.633 0l-.16 1.667c-.004.052-.043.09-.09.09-.05 0-.09-.04-.094-.09l-.138-1.668.138-1.724c.004-.053.044-.09.093-.09.047 0 .087.038.09.09l.16 1.724zm-.63 0l-.167 1.617c-.004.045-.037.077-.078.077-.042 0-.075-.032-.08-.077l-.146-1.617.146-1.676c.004-.045.037-.078.08-.078.04 0 .073.033.078.078l.166 1.675zm-.623 0L4.45 14.49c-.005.04-.032.064-.064.064-.034 0-.06-.026-.066-.063l-.155-1.383.155-1.414c.004-.037.032-.063.066-.063.033 0 .06.026.065.064l.177 1.413zm-.624 0l-.136.858c-.005.036-.03.06-.063.06-.032 0-.06-.022-.063-.06l-.114-.86.115-.874c.005-.036.03-.062.064-.062.032 0 .058.025.063.062l.136.875z" fill="#fff"/></svg><svg viewBox="0 0 47 47" enable-background="new 0 0 47 47" width="47" height="47" id="stop_sound" x="62"><path d="M23.5 1C11.074 1 1 11.073 1 23.5 1 35.926 11.074 46 23.5 46S46 35.926 46 23.5C46 11.073 35.926 1 23.5 1zM21 32h-2V16h2v16zm7 0h-2V16h2v16z" fill="#FFB706"/></svg><svg viewBox="0 0 23 23" enable-background="new 0 0 23 23" width="23" height="23" id="twitter" x="109" y="64"><path d="M1 3.125V22h21V1H1v2.125zm17.062 4.44c-.36.54-.68 1.022-1.207 1.4.005.11.145.22.145.33v.037c0 3.558-2.845 7.698-7.798 7.698-1.35 0-2.674-.372-3.775-.972.01.002-.05-.058-.04-.058h.005c1.266 0 2.437-.517 3.36-1.24-.034-.002-.068.023-.102.02.027-.02-.16-.018-.135-.037C7.43 14.633 7 13.845 6 12.84v-.003c0-.025-.02-.048-.03-.073.01.002.03 0 .03 0 1 .03.555.042.72.044.096 0 .293-.026.386-.036-.177.043-.276.07-.48.07l.096.004c.246 0 .59-.033.816-.093-.02-.004-.033-.013-.053-.018.043-.01-.138-.006-.096-.018C6.156 12.47 5 11.382 5 10.077v-.033c1 .04.542.062.62.096 0-.02.38-.042.38-.063v-.033c0 .07-.07.13.055.18.012.004-.053.01-.04.015.067.023.106.043.188.06.08.02.145.027.228.04.027.018.037.043.064.06.042.004.08.007.12.008-.022-.014-.042-.034-.062-.05.016.002.03.007.047.008l.078.006c-.72-.483-1.19-1.303-1.19-2.233 0-.248.032-.487.094-.714s.153-.442.27-.64c1.327 1.628 3.31 2.7 5.55 2.813-.047-.2-.07-.404-.07-.615 0-1.43 1.12-2.59 2.53-2.676.774 0 1.474.328 1.965.85.048-.008.092-.028.14-.04.007.01.017.014.024.022.614-.12 1.19-.59 1.71-.9 0 .002 0-.242-.002-.242-.196 1-.613 1.382-1.152 1.716-.062.01-.12.15-.183.16-.003 0-.005.065-.01.066.063-.007.122.005.184-.004-.004.002-.008.02-.012.024.54-.066 1.057-.202 1.537-.415l-.01.017c.004-.002.007 0 .01 0zM4.938 15.747c.21.024.43.038.645.038.287 0 .568-.025.842-.07-.336.068-.68.114-1.037.114-.113 0-.224-.013-.336-.02-.038-.02-.078-.04-.114-.062zm8.925-9.438c.055-.003.107-.017.162-.017.763 0 1.45.32 1.94.828-.047.012-.09.032-.14.04-.49-.522-1.188-.848-1.962-.85zM9.654 8C8.73 8 8.128 7.438 8.1 6.653c0 .018-.005-.05-.005-.033 0 .815.612 1.38 1.56 1.38zM15.5 10.537c0-.023.013-.048.016-.07l-.016.023v.047zM16.62 9.44c.408-.175.905-.29 1.45-.302-.02 0-.038-.005-.06-.005-.576 0-1.028.124-1.39.307zM12.646 9c.01 1 .016 1.163.016 2.306 0-.982-.003-1.306-.01-2.306h-.006z" fill="#fff"/></svg><svg viewBox="0 0 32 32" enable-background="new 0 0 32 32" width="32" height="32" id="twitter_share" x="109"><path d="M0 3.048V32h32V0H0v3.048zm26 6.764c-.55.823-1.037 1.56-1.84 2.135.008.167.22.334.22.504V12.507c0 5.42-4.335 11.73-11.882 11.73-2.056 0-4.075-.472-5.752-1.387.015.002-.075.006-.06.006h.007c1.93 0 3.714-.882 5.122-1.987-.054-.002-.105-.01-.158-.018.04-.028-.246-.05-.205-.08-1.652-.168-2.31-1.39-3.833-2.922v-.005c0-.04-.033-.073-.046-.112.014.003.045 0 .045 0 1.523.044.844.064 1.096.067.146 0 .446-.04.588-.055-.27.065-.42.106-.732.11l.146.003c.375 0 .9-.05 1.244-.142-.03-.007-.05-.02-.08-.027.065-.015-.21-.01-.147-.028-1.876-.376-3.64-2.034-3.64-4.024v-.05c1.524.06.827.093.944.146-.002-.033.578-.063.578-.096v-.05c0 .107-.105.198.084.273.02.008-.08.017-.062.024.102.036.162.067.287.094.122.03.222.04.347.058.04.03.055.068.096.095.064.005.122.01.18.012-.03-.022-.06-.052-.092-.074.025.002.046.01.07.01.042.005.08.008.12.01-1.092-.737-1.81-1.986-1.81-3.403 0-.376.05-.74.144-1.086.095-.347.233-.674.41-.978 2.024 2.483 5.047 4.115 8.457 4.288-.07-.3-.108-.615-.108-.935 0-2.18 1.707-3.945 3.855-4.077 1.18.002 2.247.5 2.996 1.298.073-.014.14-.045.213-.06.01.01.026.02.037.03.933-.183 1.81-.804 2.604-1.274 0 0 0-.275-.002-.275h.002c-.3 1.524-.936 2.01-1.757 2.52-.094.015-.184.183-.28.195-.004.002-.007.077-.012.08.095-.012.184-.006.278-.02-.006.004-.012.026-.018.03.823-.1 1.61-.31 2.342-.635-.004.007-.01.017-.016.024.005 0 .01.004.016.002zM6 22.282c.32.038.654.06.983.06.438-.002.865-.04 1.283-.107-.513.103-1.037.173-1.58.173-.172 0-.34-.02-.512-.03-.057-.034-.12-.06-.174-.095zM19.6 7.9c.085-.005.164-.025.248-.025 1.162 0 2.21.486 2.956 1.26-.072.017-.138.048-.21.062C21.845 8.4 20.78 7.903 19.6 7.9z"/></svg></svg>